custom-analysis
version=1
nRows=4
nColumns=146
inDegrees=no

This file contains tibia displacement and acting force.

Units are S.I. units (seconds, meters, Newtons, ...)
Angles are in degrees.

endheader
time	APT	SIT	knee_angle	aACL_R_force	pACL_R_force	aPCL_R_force	pPCL_R_force	aMCL_R_force	mMCL_R_force	pMCL_R_force	aLCL_R_force	mLCL_R_force	pLCL_R_force	aPCL_L_force	pPCL_L_force	aMCL_L_force	aLCL_L_force	aACL_R_length	pACL_R_length	aPCL_R_length	pPCL_R_length	aMCL_R_length	mMCL_R_length	pMCL_R_length	aLCL_R_length	mLCL_R_length	pLCL_R_length	aPCL_L_length	pPCL_L_length	aMCL_L_length	aLCL_L_length	aACL_R_strain	pACL_R_strain	aPCL_R_strain	pPCL_R_strain	aMCL_R_strain	mMCL_R_strain	pMCL_R_strain	aLCL_R_strain	mLCL_R_strain	pLCL_R_strain	aPCL_L_strain	pPCL_L_strain	aMCL_L_strain	aLCL_L_strain	femur_lat_meniscii_l.femur_lat_l.force.X	femur_lat_meniscii_l.femur_lat_l.force.Y	femur_lat_meniscii_l.femur_lat_l.force.Z	femur_lat_meniscii_l.femur_lat_l.torque.X	femur_lat_meniscii_l.femur_lat_l.torque.Y	femur_lat_meniscii_l.femur_lat_l.torque.Z	femur_lat_meniscii_l.meniscus_lat_l.force.X	femur_lat_meniscii_l.meniscus_lat_l.force.Y	femur_lat_meniscii_l.meniscus_lat_l.force.Z	femur_lat_meniscii_l.meniscus_lat_l.torque.X	femur_lat_meniscii_l.meniscus_lat_l.torque.Y	femur_lat_meniscii_l.meniscus_lat_l.torque.Z	femur_med_meniscii_l.femur_med_l.force.X	femur_med_meniscii_l.femur_med_l.force.Y	femur_med_meniscii_l.femur_med_l.force.Z	femur_med_meniscii_l.femur_med_l.torque.X	femur_med_meniscii_l.femur_med_l.torque.Y	femur_med_meniscii_l.femur_med_l.torque.Z	femur_med_meniscii_l.meniscus_med_l.force.X	femur_med_meniscii_l.meniscus_med_l.force.Y	femur_med_meniscii_l.meniscus_med_l.force.Z	femur_med_meniscii_l.meniscus_med_l.torque.X	femur_med_meniscii_l.meniscus_med_l.torque.Y	femur_med_meniscii_l.meniscus_med_l.torque.Z	femur_lat_meniscii_r.femur_lat_r.force.X	femur_lat_meniscii_r.femur_lat_r.force.Y	femur_lat_meniscii_r.femur_lat_r.force.Z	femur_lat_meniscii_r.femur_lat_r.torque.X	femur_lat_meniscii_r.femur_lat_r.torque.Y	femur_lat_meniscii_r.femur_lat_r.torque.Z	femur_lat_meniscii_r.meniscus_lat_r.force.X	femur_lat_meniscii_r.meniscus_lat_r.force.Y	femur_lat_meniscii_r.meniscus_lat_r.force.Z	femur_lat_meniscii_r.meniscus_lat_r.torque.X	femur_lat_meniscii_r.meniscus_lat_r.torque.Y	femur_lat_meniscii_r.meniscus_lat_r.torque.Z	femur_med_meniscii_r.femur_med_r.force.X	femur_med_meniscii_r.femur_med_r.force.Y	femur_med_meniscii_r.femur_med_r.force.Z	femur_med_meniscii_r.femur_med_r.torque.X	femur_med_meniscii_r.femur_med_r.torque.Y	femur_med_meniscii_r.femur_med_r.torque.Z	femur_med_meniscii_r.meniscus_med_r.force.X	femur_med_meniscii_r.meniscus_med_r.force.Y	femur_med_meniscii_r.meniscus_med_r.force.Z	femur_med_meniscii_r.meniscus_med_r.torque.X	femur_med_meniscii_r.meniscus_med_r.torque.Y	femur_med_meniscii_r.meniscus_med_r.torque.Z	femur_med_tibia_l.tibia_upper_l.force.X	femur_med_tibia_l.tibia_upper_l.force.Y	femur_med_tibia_l.tibia_upper_l.force.Z	femur_med_tibia_l.tibia_upper_l.torque.X	femur_med_tibia_l.tibia_upper_l.torque.Y	femur_med_tibia_l.tibia_upper_l.torque.Z	femur_med_tibia_l.femur_med_l.force.X	femur_med_tibia_l.femur_med_l.force.Y	femur_med_tibia_l.femur_med_l.force.Z	femur_med_tibia_l.femur_med_l.torque.X	femur_med_tibia_l.femur_med_l.torque.Y	femur_med_tibia_l.femur_med_l.torque.Z	femur_lat_tibia_l.tibia_upper_l.force.X	femur_lat_tibia_l.tibia_upper_l.force.Y	femur_lat_tibia_l.tibia_upper_l.force.Z	femur_lat_tibia_l.tibia_upper_l.torque.X	femur_lat_tibia_l.tibia_upper_l.torque.Y	femur_lat_tibia_l.tibia_upper_l.torque.Z	femur_lat_tibia_l.femur_lat_l.force.X	femur_lat_tibia_l.femur_lat_l.force.Y	femur_lat_tibia_l.femur_lat_l.force.Z	femur_lat_tibia_l.femur_lat_l.torque.X	femur_lat_tibia_l.femur_lat_l.torque.Y	femur_lat_tibia_l.femur_lat_l.torque.Z	femur_med_tibia_r.tibia_upper_r.force.X	femur_med_tibia_r.tibia_upper_r.force.Y	femur_med_tibia_r.tibia_upper_r.force.Z	femur_med_tibia_r.tibia_upper_r.torque.X	femur_med_tibia_r.tibia_upper_r.torque.Y	femur_med_tibia_r.tibia_upper_r.torque.Z	femur_med_tibia_r.femur_med_r.force.X	femur_med_tibia_r.femur_med_r.force.Y	femur_med_tibia_r.femur_med_r.force.Z	femur_med_tibia_r.femur_med_r.torque.X	femur_med_tibia_r.femur_med_r.torque.Y	femur_med_tibia_r.femur_med_r.torque.Z	femur_lat_tibia_r.tibia_upper_r.force.X	femur_lat_tibia_r.tibia_upper_r.force.Y	femur_lat_tibia_r.tibia_upper_r.force.Z	femur_lat_tibia_r.tibia_upper_r.torque.X	femur_lat_tibia_r.tibia_upper_r.torque.Y	femur_lat_tibia_r.tibia_upper_r.torque.Z	femur_lat_tibia_r.femur_lat_r.force.X	femur_lat_tibia_r.femur_lat_r.force.Y	femur_lat_tibia_r.femur_lat_r.force.Z	femur_lat_tibia_r.femur_lat_r.torque.X	femur_lat_tibia_r.femur_lat_r.torque.Y	femur_lat_tibia_r.femur_lat_r.torque.Z	femur_lat_meniscii_force_r	femur_med_meniscii_force_r	femur_lat_tibia_force_r	femur_med_tibia_force_r
      0.22128640	      0.00232483	      0.00048147	      1.66574369	     19.53313291	     39.08546908	      0.00000000	      0.00000000	      0.00000000	      8.97593299	     33.83439122	      1.21199835	      0.00000000	      1.03494124	      0.00000000	      0.00000000	      0.00000001	      0.00000000	      0.03255343	      0.02685103	      0.02803419	      0.02824977	      0.05694511	      0.06153412	      0.06380685	      0.05633406	      0.05468992	      0.05279866	      0.01525851	      0.01651186	      0.06550154	      0.04489616	      0.04992439	      0.07152511	     -0.09844284	     -0.05480608	     -0.03527009	      0.02911047	      0.06829043	      0.00637501	     -0.02891906	      0.00871103	      0.00000079	     -0.32847694	      0.00000060	     -0.00000086	      2.76307435	     50.99597937	     -9.56042239	      5.21997485	     -0.02578839	      1.48581788	     -2.76307435	    -50.99597937	      9.56042239	     -1.74637766	      0.02558040	     -0.48301696	     -3.31599387	     20.97615968	     -3.40468921	      0.94473225	     -0.02138609	     -1.00501789	      3.31599387	    -20.97615968	      3.40468921	      0.28075727	      0.00368718	     -0.29758878	     19.25796489	     78.31740651	      4.77086287	     -3.95464911	      0.47757583	      8.32277911	    -19.25796489	    -78.31740651	     -4.77086287	      2.55084265	     -0.59302536	     -0.76101000	     56.72347781	     99.13651227	     -0.72019397	      2.36868951	     -1.21161525	     24.15671715	    -56.72347781	    -99.13651227	      0.72019397	     -1.54514086	      0.90034409	     -2.14014037	      0.00000000	      0.00000000	      0.00000000	      0.00000000	      0.00000000	      0.00000000	      0.00000000	      0.00000000	      0.00000000	      0.00000000	      0.00000000	      0.00000000	      0.00000000	      0.00000000	      0.00000000	      0.00000000	      0.00000000	      0.00000000	      0.00000000	      0.00000000	      0.00000000	      0.00000000	      0.00000000	      0.00000000	     -1.43134181	     -5.51391595	      0.21834975	     -0.08886751	      0.01967723	     -0.08235941	      1.43134181	      5.51391595	     -0.21834975	      0.20326814	     -0.02714176	      0.64378727	      0.00000000	      0.00000000	      0.00000000	      0.00000000	      0.00000000	      0.00000000	      0.00000000	      0.00000000	      0.00000000	      0.00000000	      0.00000000	      0.00000000	     80.79137643	    114.21961162	      0.00000000	      5.70084951
      0.22163121	      0.00232712	      0.00048098	      1.66574369	     19.54269081	     39.10554296	      0.00000000	      0.00000000	      0.00000000	      8.96784647	     33.83340802	      1.12194310	      0.00000000	      0.93760423	      0.00000000	      0.00000000	      0.00000001	      0.00000000	      0.03255417	      0.02685164	      0.02803371	      0.02824921	      0.05694701	      0.06153569	      0.06380836	      0.05633440	      0.05469018	      0.05279886	      0.01525851	      0.01651186	      0.06550154	      0.04489616	      0.04994815	      0.07154943	     -0.09845827	     -0.05482465	     -0.03523787	      0.02913676	      0.06831575	      0.00638123	     -0.02891451	      0.00871490	      0.00000079	     -0.32847694	      0.00000060	     -0.00000086	      2.76307435	     50.99597937	     -9.56042239	      5.21997485	     -0.02578839	      1.48581788	     -2.76307435	    -50.99597937	      9.56042239	     -1.74637766	      0.02558040	     -0.48301696	     -3.31599387	     20.97615968	     -3.40468921	      0.94473225	     -0.02138609	     -1.00501789	      3.31599387	    -20.97615968	      3.40468921	      0.28075727	      0.00368718	     -0.29758878	     19.23449541	     78.31757224	      4.73460581	     -3.93935771	      0.47692971	      8.31297788	    -19.23449541	    -78.31757224	     -4.73460581	      2.54955615	     -0.59220745	     -0.75999334	     56.77514240	     99.17159962	     -0.76933631	      2.39019134	     -1.21330749	     24.17928725	    -56.77514240	    -99.17159962	      0.76933631	     -1.54746856	      0.90180749	     -2.14243244	      0.00000000	      0.00000000	      0.00000000	      0.00000000	      0.00000000	      0.00000000	      0.00000000	      0.00000000	      0.00000000	      0.00000000	      0.00000000	      0.00000000	      0.00000000	      0.00000000	      0.00000000	      0.00000000	      0.00000000	      0.00000000	      0.00000000	      0.00000000	      0.00000000	      0.00000000	      0.00000000	      0.00000000	     -1.42418960	     -5.46889062	      0.21802382	     -0.08819000	      0.01957551	     -0.08185171	      1.42418960	      5.46889062	     -0.21802382	      0.20222125	     -0.02700166	      0.64045729	      0.00000000	      0.00000000	      0.00000000	      0.00000000	      0.00000000	      0.00000000	      0.00000000	      0.00000000	      0.00000000	      0.00000000	      0.00000000	      0.00000000	     80.78381290	    114.27604668	      0.00000000	      5.65549423
      0.22237439	      0.00233205	      0.00047996	      1.66574369	     19.56576423	     39.14851229	      0.00000000	      0.00000000	      0.00000000	      8.99511455	     33.87615018	      1.05837381	      0.00000000	      0.86427179	      0.00000000	      0.00000000	      0.00000001	      0.00000000	      0.03255573	      0.02685293	      0.02803262	      0.02824795	      0.05695111	      0.06153907	      0.06381161	      0.05633509	      0.05469066	      0.05279923	      0.01525851	      0.01651186	      0.06550154	      0.04489616	      0.04999870	      0.07160119	     -0.09849346	     -0.05486676	     -0.03516844	      0.02919331	      0.06837013	      0.00639346	     -0.02890596	      0.00872185	      0.00000079	     -0.32847694	      0.00000060	     -0.00000086	      2.76307435	     50.99597937	     -9.56042239	      5.21997485	     -0.02578839	      1.48581788	     -2.76307435	    -50.99597937	      9.56042239	     -1.74637766	      0.02558040	     -0.48301696	     -3.31599387	     20.97615968	     -3.40468921	      0.94473225	     -0.02138609	     -1.00501789	      3.31599387	    -20.97615968	      3.40468921	      0.28075727	      0.00368718	     -0.29758878	     19.17681934	     78.29098510	      4.70249883	     -3.92519994	      0.47543935	      8.28885486	    -19.17681934	    -78.29098510	     -4.70249883	      2.54773336	     -0.59040002	     -0.75757990	     56.82563903	     99.20220155	     -0.88069217	      2.43763223	     -1.21471960	     24.20173628	    -56.82563903	    -99.20220155	      0.88069217	     -1.55172483	      0.90306553	     -2.14467118	      0.00000000	      0.00000000	      0.00000000	      0.00000000	      0.00000000	      0.00000000	      0.00000000	      0.00000000	      0.00000000	      0.00000000	      0.00000000	      0.00000000	      0.00000000	      0.00000000	      0.00000000	      0.00000000	      0.00000000	      0.00000000	      0.00000000	      0.00000000	      0.00000000	      0.00000000	      0.00000000	      0.00000000	     -1.40375391	     -5.37771293	      0.21559710	     -0.08673548	      0.01928739	     -0.08057290	      1.40375391	      5.37771293	     -0.21559710	      0.19934008	     -0.02660666	      0.63117495	      0.00000000	      0.00000000	      0.00000000	      0.00000000	      0.00000000	      0.00000000	      0.00000000	      0.00000000	      0.00000000	      0.00000000	      0.00000000	      0.00000000	     80.74244387	    114.32849891	      0.00000000	      5.56208626
      0.22383755	      0.00234175	      0.00047791	      1.66574369	     19.66502338	     39.27552690	      0.00000000	      0.00000000	      0.00000000	      9.22539194	     34.14002232	      1.13732460	      0.00000000	      0.92956154	      0.00000000	      0.00000000	      0.00000001	      0.00000000	      0.03255881	      0.02685548	      0.02803052	      0.02824553	      0.05695936	      0.06154589	      0.06381815	      0.05633642	      0.05469158	      0.05279991	      0.01525851	      0.01651186	      0.06550154	      0.04489616	      0.05009802	      0.07170270	     -0.09856095	     -0.05494792	     -0.03502879	      0.02930730	      0.06847958	      0.00641734	     -0.02888953	      0.00873499	      0.00000079	     -0.32847694	      0.00000060	     -0.00000086	      2.76307435	     50.99597937	     -9.56042239	      5.21997485	     -0.02578839	      1.48581788	     -2.76307435	    -50.99597937	      9.56042239	     -1.74637766	      0.02558040	     -0.48301696	     -3.31599387	     20.97615968	     -3.40468921	      0.94473225	     -0.02138609	     -1.00501789	      3.31599387	    -20.97615968	      3.40468921	      0.28075727	      0.00368718	     -0.29758878	     19.09594450	     78.13280626	      4.71138681	     -3.92510672	      0.47356315	      8.25497320	    -19.09594450	    -78.13280626	     -4.71138681	      2.54361492	     -0.58822382	     -0.75407133	     56.25816607	    100.23841654	     -1.45153069	      2.70209470	     -1.20461436	     23.96250028	    -56.25816607	   -100.23841654	      1.45153069	     -1.59048624	      0.89702357	     -2.12028908	      0.00000000	      0.00000000	      0.00000000	      0.00000000	      0.00000000	      0.00000000	      0.00000000	      0.00000000	      0.00000000	      0.00000000	      0.00000000	      0.00000000	      0.00000000	      0.00000000	      0.00000000	      0.00000000	      0.00000000	      0.00000000	      0.00000000	      0.00000000	      0.00000000	      0.00000000	      0.00000000	      0.00000000	     -1.35843364	     -5.17783977	      0.20430209	     -0.08329831	      0.01867126	     -0.07775928	      1.35843364	      5.17783977	     -0.20430209	      0.19047428	     -0.02576499	      0.61060371	      0.00000000	      0.00000000	      0.00000000	      0.00000000	      0.00000000	      0.00000000	      0.00000000	      0.00000000	      0.00000000	      0.00000000	      0.00000000	      0.00000000	     80.57038957	    114.95576689	      0.00000000	      5.35696798
